<?xml version="1.0" standalone="no"?><!DOCTYPE svg PUBLIC "-//W3C//DTD SVG 1.1//EN" "http://www.w3.org/Graphics/SVG/1.1/DTD/svg11.dtd"><svg t="1661354581209" class="icon" viewBox="0 0 1024 1024" version="1.1" xmlns="http://www.w3.org/2000/svg" p-id="2355" xmlns:xlink="http://www.w3.org/1999/xlink" width="200" height="200"><defs><style type="text/css"></style></defs><path d="M816 64H144a80 80 0 0 0-80 80v512a80 80 0 0 0 80 80h210.88l25.6 128H288a48 48 0 0 0-48 48 48 48 0 0 0 48 48h380.16A67.84 67.84 0 0 0 736 892.16a66.4 66.4 0 0 0-6.56-28.16l-49.92-128H816a144 144 0 0 0 144-144V208a144 144 0 0 0-144-144zM387.52 736h193.6l51.2 128h-219.2zM288 928a16 16 0 0 1-16-16 16 16 0 0 1 4.96-11.36A14.88 14.88 0 0 1 288 896h226.72a48 48 0 0 0-2.72 16v9.6a39.2 39.2 0 0 0 1.28 4.64V928z m368-224H144a48 48 0 0 1-48-48V144a48 48 0 0 1 48-48h672a48 48 0 0 1 48 48v512a48 48 0 0 1-48 48z" p-id="2356"></path><path d="M128 128m16 0l672 0q16 0 16 16l0 448q0 16-16 16l-672 0q-16 0-16-16l0-448q0-16 16-16Z" p-id="2357"></path><path d="M496 640h-32a16 16 0 0 0 0 32h32a16 16 0 0 0 0-32z" p-id="2358"></path></svg>